<?xml version="1.0" encoding="iso-8859-1"?>
<!-- Uploaded to: SVG Repo, www.svgrepo.com, Generator: SVG Repo Mixer Tools -->
<svg height="800px" width="800px" version="1.1" id="Layer_1" xmlns="http://www.w3.org/2000/svg" xmlns:xlink="http://www.w3.org/1999/xlink" 
	 viewBox="0 0 297 297" xml:space="preserve">
<g>
	<g>
		<circle style="fill:#D35400;" cx="148.5" cy="148.5" r="148.5"/>
	</g>
	<path style="fill:#A53D04;" d="M154.11,296.884c76.37-2.838,137.991-63.338,142.602-139.243L217.02,77.955l-68.704,77.318
		c-0.97,41.417,6.078,84.873-13.357,122.46L154.11,296.884z"/>
	<g>
		<path style="fill:#32373B;" d="M141.348,280.5h14.305c5.065,0,9.081-4.274,8.765-9.329l-7.152-114.437
			c-0.289-4.628-4.127-8.234-8.765-8.234l0,0c-4.637,0-8.475,3.606-8.765,8.234l-7.152,114.437
			C132.267,276.226,136.282,280.5,141.348,280.5z"/>
	</g>
	<g>
		<path style="fill:#ECF0F1;" d="M179.966,184.234c-1.279,0-2.56-0.488-3.535-1.465c-1.953-1.952-1.953-5.118,0-7.07
			c7.461-7.461,11.569-17.381,11.569-27.932s-4.108-20.47-11.569-27.931s-17.38-11.569-27.931-11.569s-20.47,4.108-27.93,11.569
			c-7.462,7.461-11.57,17.38-11.57,27.931s4.108,20.471,11.569,27.932c1.953,1.952,1.953,5.118,0,7.07
			c-1.951,1.953-5.119,1.953-7.07,0C104.149,173.42,99,160.989,99,147.768s5.149-25.652,14.499-35.001
			c9.349-9.35,21.779-14.499,35.001-14.499s25.652,5.149,35.001,14.499c9.35,9.349,14.499,21.779,14.499,35.001
			s-5.149,25.652-14.499,35.002C182.525,183.746,181.245,184.234,179.966,184.234z"/>
	</g>
	<g>
		<path style="fill:#ECF0F1;" d="M99.366,201.903c-1.279,0-2.56-0.488-3.535-1.465c-29.042-29.042-29.043-76.298-0.001-105.34
			c14.068-14.069,32.773-21.817,52.669-21.817s38.601,7.748,52.669,21.817c29.043,29.042,29.044,76.297,0.002,105.34
			c-1.951,1.953-5.119,1.953-7.07,0c-1.953-1.952-1.953-5.118,0-7.07c25.143-25.145,25.142-66.056-0.002-91.199
			c-12.18-12.18-28.374-18.888-45.599-18.888s-33.419,6.708-45.599,18.888c-25.143,25.144-25.142,66.056,0.001,91.2
			c1.953,1.952,1.953,5.118,0,7.07C101.926,201.415,100.646,201.903,99.366,201.903z"/>
	</g>
	<g>
		<path style="fill:#ECF0F1;" d="M214.135,218.403c-1.279,0-2.56-0.488-3.535-1.465c-1.953-1.952-1.953-5.118,0-7.07
			c34.24-34.242,34.239-89.958-0.002-124.2c-16.587-16.587-38.641-25.722-62.099-25.722S102.987,69.081,86.4,85.668
			c-34.24,34.241-34.239,89.957,0.001,124.2c1.953,1.952,1.953,5.118,0,7.07c-1.951,1.953-5.119,1.953-7.07,0
			c-38.14-38.141-38.141-100.201-0.001-138.34c18.476-18.477,43.04-28.651,69.169-28.651s50.693,10.175,69.169,28.651
			c38.142,38.141,38.143,100.2,0.002,138.341C216.694,217.915,215.414,218.403,214.135,218.403z"/>
	</g>
	<g>
		<path style="fill:#1D2123;" d="M164.417,271.17l-7.152-114.437c-0.289-4.628-4.127-8.234-8.765-8.234
			c-0.112,0-0.222,0.012-0.333,0.016V280.5h7.485C160.718,280.5,164.733,276.226,164.417,271.17z"/>
	</g>
	<g>
		<path style="fill:#BCC2C4;" d="M183.501,112.767c-9.349-9.35-21.779-14.499-35.001-14.499c-0.111,0-0.222,0.007-0.333,0.008v10
			c0.111-0.001,0.222-0.008,0.333-0.008c10.551,0,20.47,4.108,27.931,11.569S188,137.217,188,147.768s-4.108,20.471-11.569,27.932
			c-1.953,1.952-1.953,5.118,0,7.07c0.976,0.977,2.256,1.465,3.535,1.465s2.56-0.488,3.535-1.465
			c9.35-9.35,14.499-21.78,14.499-35.002S192.851,122.115,183.501,112.767z"/>
	</g>
	<g>
		<path style="fill:#BCC2C4;" d="M201.168,95.098C187.1,81.028,168.395,73.28,148.499,73.28c-0.111,0-0.221,0.008-0.332,0.008v10
			c0.111,0,0.221-0.008,0.332-0.008c17.225,0,33.419,6.708,45.599,18.888c25.144,25.144,25.145,66.055,0.002,91.199
			c-1.953,1.952-1.953,5.118,0,7.07c1.951,1.953,5.119,1.953,7.07,0C230.212,171.395,230.211,124.14,201.168,95.098z"/>
	</g>
	<g>
		<path style="fill:#BCC2C4;" d="M217.668,78.598c-18.476-18.477-43.04-28.651-69.169-28.651c-0.111,0-0.221,0.004-0.332,0.004
			v10.004c0.111,0,0.221-0.008,0.332-0.008c23.458,0,45.512,9.135,62.099,25.722c34.241,34.242,34.242,89.958,0.002,124.2
			c-1.953,1.952-1.953,5.118,0,7.07c0.976,0.977,2.256,1.465,3.535,1.465s2.56-0.488,3.535-1.465
			C255.811,178.798,255.81,116.738,217.668,78.598z"/>
	</g>
	<g>
		<circle style="fill:#F4AF30;" cx="148.5" cy="148.5" r="16.5"/>
	</g>
	<g>
		<path style="fill:#E09B2D;" d="M148.5,132c-0.112,0-0.221,0.015-0.333,0.017v32.966c0.112,0.002,0.221,0.017,0.333,0.017
			c9.113,0,16.5-7.387,16.5-16.5S157.613,132,148.5,132z"/>
	</g>
</g>
</svg>