<?xml version="1.0" encoding="iso-8859-1"?>
<!-- Uploaded to: SVG Repo, www.svgrepo.com, Generator: SVG Repo Mixer Tools -->
<svg height="800px" width="800px" version="1.1" id="Layer_1" xmlns="http://www.w3.org/2000/svg" xmlns:xlink="http://www.w3.org/1999/xlink" 
	 viewBox="0 0 297 297" xml:space="preserve">
<g>
	<g>
		<circle style="fill:#D95459;" cx="148.5" cy="148.5" r="148.5"/>
	</g>
	<path style="fill:#B7343E;" d="M53.764,200.113l96.86,96.86c80.179-1.125,144.985-65.786,146.344-145.908l-37.305-37.305
		L53.764,200.113z"/>
	<g>
		<path style="fill:#32373B;" d="M181.778,99.483l-6.91-28.21c-0.429-1.751-1.998-2.982-3.801-2.982H87.959
			c-2.161,0-3.913,1.752-3.913,3.913v10.192c0,2.161,1.752,3.913,3.913,3.913h69.503c1.803,0,3.372,1.231,3.801,2.982l2.952,12.054
			c0.429,1.751,1.998,2.982,3.801,2.982h9.96C180.516,104.327,182.382,101.948,181.778,99.483z"/>
	</g>
	<g>
		<path style="fill:#D0D5D9;" d="M252.873,191.47l-31.758-15.879c-2.02-1.01-3.295-3.074-3.295-5.332v-36.312
			c0-2.258,1.276-4.322,3.295-5.332l31.758-15.879c3.964-1.982,8.627,0.9,8.627,5.332v68.071
			C261.5,190.57,256.836,193.452,252.873,191.47z"/>
	</g>
	<g>
		<path style="fill:#777C7F;" d="M206.238,207.25H69.965c-12.126,0-21.955-9.83-21.955-21.955v-66.384
			c0-12.126,9.83-21.955,21.955-21.955h136.274c12.126,0,21.955,9.83,21.955,21.955v66.384
			C228.193,197.42,218.364,207.25,206.238,207.25z"/>
	</g>
	<g>
		<path style="fill:#2C3033;" d="M181.778,99.482l-6.91-28.21c-0.429-1.751-1.998-2.982-3.801-2.982h-22.901v18.018h9.296
			c1.803,0,3.372,1.231,3.801,2.982l2.952,12.054c0.429,1.751,1.998,2.982,3.801,2.982h9.961
			C180.516,104.327,182.382,101.948,181.778,99.482z"/>
	</g>
	<g>
		<path style="fill:#585D60;" d="M206.238,96.956h-58.071V207.25h58.071c12.125,0,21.955-9.83,21.955-21.955v-66.384
			C228.193,106.785,218.364,96.956,206.238,96.956z"/>
	</g>
	<g>
		<path style="fill:#32373B;" d="M69.965,96.956c-12.125,0-21.955,9.83-21.955,21.955v66.384c0,12.125,9.83,21.955,21.955,21.955
			h21.362V96.956H69.965z"/>
	</g>
	<g>
		<path style="fill:#D0D5D9;" d="M181.509,122.072h3.276c2.412,0,4.368-1.956,4.368-4.368v-3.276c0-2.412-1.956-4.368-4.368-4.368
			h-3.276c-2.412,0-4.368,1.956-4.368,4.368v3.276C177.141,120.116,179.097,122.072,181.509,122.072z"/>
	</g>
	<g>
		<path style="fill:#D0D5D9;" d="M202.531,122.072h3.276c2.412,0,4.368-1.956,4.368-4.368v-3.276c0-2.412-1.956-4.368-4.368-4.368
			h-3.276c-2.413,0-4.368,1.956-4.368,4.368v3.276C198.163,120.116,200.118,122.072,202.531,122.072z"/>
	</g>
	<g>
		<path style="fill:#32373B;" d="M111.438,179.13h89.364c5.177,0,9.373-4.197,9.373-9.373v-17.29c0-5.177-4.197-9.373-9.373-9.373
			h-89.364c-5.177,0-9.373,4.197-9.373,9.373v17.29C102.065,174.934,106.261,179.13,111.438,179.13z"/>
	</g>
	<g>
		<path style="fill:#2C3033;" d="M200.802,143.094h-52.635v36.037h52.635c5.177,0,9.373-4.197,9.373-9.373v-17.29
			C210.175,147.29,205.978,143.094,200.802,143.094z"/>
	</g>
</g>
</svg>