<?xml version="1.0" encoding="iso-8859-1"?>
<!-- Uploaded to: SVG Repo, www.svgrepo.com, Generator: SVG Repo Mixer Tools -->
<svg height="800px" width="800px" version="1.1" id="Layer_1" xmlns="http://www.w3.org/2000/svg" xmlns:xlink="http://www.w3.org/1999/xlink" 
	 viewBox="0 0 297 297" xml:space="preserve">
<g>
	<g>
		<circle style="fill:#C63C22;" cx="148.5" cy="148.5" r="148.5"/>
	</g>
	<path style="fill:#A53D04;" d="M68.489,183.939l110.026,110.026c62.607-12.851,110.838-65.104,117.653-129.706l-67.897-67.897
		L68.489,183.939z"/>
	<g>
		<path style="fill:#FFCD02;" d="M148.5,66c-54.676,0-99,33.243-99,74.25c0,38.177,38.42,69.62,87.843,73.778L132,247.5l16.5-14.514
			V66L148.5,66z"/>
		<path style="fill:#FFCD02;" d="M148.5,66v166.986l23.394-20.577c43.384-7.884,75.606-37.197,75.606-72.159
			C247.5,99.243,203.176,66,148.5,66z"/>
	</g>
	<g>
		<g>
			<path style="fill:#D6AD00;" d="M148.5,66v166.986l23.394-20.577c43.384-7.884,75.606-37.197,75.606-72.159
				C247.5,99.243,203.176,66,148.5,66z"/>
		</g>
		<g>
			<circle style="fill:#CC3B3B;" cx="198" cy="142.5" r="13"/>
		</g>
		<g>
			<circle style="fill:#E95755;" cx="148.5" cy="142.5" r="13"/>
		</g>
		<g>
			<path style="fill:#CC3B3B;" d="M161.5,142.5c0-7.18-5.82-13-13-13v26C155.68,155.5,161.5,149.68,161.5,142.5z"/>
		</g>
		<g>
			<circle style="fill:#E95755;" cx="99" cy="142.5" r="13"/>
		</g>
	</g>
</g>
</svg>