<?xml version="1.0" encoding="iso-8859-1"?>
<!-- Uploaded to: SVG Repo, www.svgrepo.com, Generator: SVG Repo Mixer Tools -->
<svg version="1.1" id="Layer_1" xmlns="http://www.w3.org/2000/svg" xmlns:xlink="http://www.w3.org/1999/xlink" 
	 viewBox="0 0 297 297" xml:space="preserve">
<g>
	<g>
		<circle style="fill:#17AB93;" cx="148.5" cy="148.5" r="148.5"/>
	</g>
	<path style="fill:#0A7C66;" d="M296.177,164.177L247.5,115.5L54.194,242.408l46.843,46.843C115.94,294.275,131.902,297,148.5,297
		C225.219,297,288.344,238.821,296.177,164.177z"/>
	<g>
		<path style="fill:#32373B;" d="M230.833,247.5H66.166c-9.205,0-16.666-7.462-16.666-16.667V115.5h198v115.333
			C247.5,240.038,240.038,247.5,230.833,247.5z"/>
	</g>
	<g>
		<rect x="49.5" y="115.5" style="fill:#495054;" width="198" height="33"/>
	</g>
	<g>
		<path style="fill:#495054;" d="M246.623,96.61L49.526,115.5l-2.321-24.218c-0.457-4.767,3.037-9.002,7.804-9.459l179.833-17.236
			c4.767-0.457,9.002,3.037,9.459,7.804L246.623,96.61z"/>
	</g>
	<g>
		<path style="fill:#22272B;" d="M148.834,115.5v132h82c9.205,0,16.667-7.462,16.667-16.667V115.5H148.834z"/>
	</g>
	<g>
		<rect x="148.834" y="115.5" style="fill:#384044;" width="98.666" height="33"/>
	</g>
	<g>
		<path style="fill:#384044;" d="M244.302,72.392c-0.457-4.767-4.692-8.261-9.459-7.804l-86.009,8.243v33.151l97.789-9.372
			L244.302,72.392z"/>
	</g>
	<g>
		<polygon style="fill:#ECF0F1;" points="82.5,148.5 66,148.5 82.5,115.5 99,115.5 		"/>
	</g>
	<g>
		<polygon style="fill:#ECF0F1;" points="115.5,148.5 99,148.5 115.5,115.5 132,115.5 		"/>
	</g>
	<g>
		<polygon style="fill:#D0D5D9;" points="181.5,148.5 165,148.5 181.5,115.5 198,115.5 		"/>
	</g>
	<g>
		<polygon style="fill:#D0D5D9;" points="214.5,148.5 198,148.5 214.5,115.5 231,115.5 		"/>
	</g>
	<g>
		<polygon style="fill:#ECF0F1;" points="82.375,112.352 65.951,113.926 79.227,79.502 95.652,77.928 		"/>
	</g>
	<g>
		<polygon style="fill:#ECF0F1;" points="115.225,109.203 98.8,110.777 112.076,76.354 128.501,74.78 		"/>
	</g>
	<g>
		<polygon style="fill:#D0D5D9;" points="180.924,102.906 164.499,104.481 177.775,70.057 194.2,68.483 		"/>
	</g>
	<g>
		<polygon style="fill:#D0D5D9;" points="213.773,99.758 197.348,101.332 210.625,66.908 227.049,65.334 		"/>
	</g>
	<g>
		<polygon style="fill:#ECF0F1;" points="148.5,148.5 132,148.5 148.5,115.5 165,115.5 		"/>
	</g>
	<g>
		<polygon style="fill:#ECF0F1;" points="148.074,106.055 131.649,107.629 144.926,73.205 161.351,71.631 		"/>
	</g>
	<g>
		<polygon style="fill:#D0D5D9;" points="148.834,115.5 148.834,147.833 165,115.5 		"/>
	</g>
	<g>
		<polygon style="fill:#D0D5D9;" points="148.834,72.831 148.834,104.086 161.351,71.631 		"/>
	</g>
	<g>
		<rect x="82.5" y="165" style="fill:#9ADAD9;" width="132" height="49.5"/>
	</g>
	<g>
		<rect x="148.834" y="165" style="fill:#7EBCB9;" width="65.666" height="49.5"/>
	</g>
</g>
</svg>