<?xml version="1.0" encoding="iso-8859-1"?>
<!-- Uploaded to: SVG Repo, www.svgrepo.com, Generator: SVG Repo Mixer Tools -->
<svg height="800px" width="800px" version="1.1" id="Layer_1" xmlns="http://www.w3.org/2000/svg" xmlns:xlink="http://www.w3.org/1999/xlink" 
	 viewBox="0 0 297 297" xml:space="preserve">
<g>
	<g>
		<circle style="fill:#82D9C8;" cx="148.5" cy="148.5" r="148.5"/>
	</g>
	<path style="fill:#17AB93;" d="M292.39,185.345l-36.033-36.033c-30.133,25.045-76.191,9.359-113.857,14.188c-6,1-11,2-17,3
		c-13,1-26,0-39,0s-24,7-31,18c-6.072,7.806-1.615,17.869-3.588,27.579l84.422,84.422c4.013,0.325,8.068,0.499,12.165,0.499
		C217.795,297,276.002,249.535,292.39,185.345z"/>
	<g>
		<path style="fill:#6F767A;" d="M57.75,214.5L57.75,214.5c-4.556,0-8.25-3.694-8.25-8.25v-16.5c0-4.556,3.694-8.25,8.25-8.25l0,0
			c4.556,0,8.25,3.694,8.25,8.25v16.5C66,210.806,62.306,214.5,57.75,214.5z"/>
	</g>
	<g>
		<path style="fill:#6F767A;" d="M239.25,214.5L239.25,214.5c-4.556,0-8.25-3.694-8.25-8.25v-16.5c0-4.556,3.694-8.25,8.25-8.25l0,0
			c4.556,0,8.25,3.694,8.25,8.25v16.5C247.5,210.806,243.806,214.5,239.25,214.5z"/>
	</g>
	<g>
		<circle style="fill:#D0D5D9;" cx="108.52" cy="138.896" r="50.354"/>
	</g>
	<g>
		<circle style="fill:#FFFFFF;" cx="108.52" cy="138.896" r="16.785"/>
	</g>
	<g>
		<circle style="fill:#32373B;" cx="108.52" cy="138.896" r="8.392"/>
	</g>
	<g>
		<path style="fill:#32373B;" d="M243.667,198H53.333C42.104,198,33,188.896,33,177.667V165c0-11.23,9.104-20.333,20.333-20.333
			h190.333c11.23,0,20.333,9.104,20.333,20.333v12.667C264,188.896,254.896,198,243.667,198z"/>
	</g>
	<g>
		<path style="fill:#2C3033;" d="M243.667,144.667h-95V198h95c11.23,0,20.333-9.104,20.333-20.333V165
			C264,153.77,254.896,144.667,243.667,144.667z"/>
	</g>
	<g>
		<circle style="fill:#2ECC71;" cx="222.75" cy="171.333" r="5"/>
	</g>
	<g>
		<circle style="fill:#C63C22;" cx="242.5" cy="171.333" r="5"/>
	</g>
	<g>
		<path style="fill:#FFFFFF;" d="M161.5,176.5h-104c-2.762,0-5-2.238-5-5s2.238-5,5-5h104c2.762,0,5,2.238,5,5
			S164.262,176.5,161.5,176.5z"/>
	</g>
	<g>
		<path style="fill:#FFFFFF;" d="M161.5,166.5h-12.833v10H161.5c2.762,0,5-2.238,5-5S164.262,166.5,161.5,166.5z"/>
	</g>
</g>
</svg>