<?xml version="1.0" encoding="iso-8859-1"?>
<!-- Uploaded to: SVG Repo, www.svgrepo.com, Generator: SVG Repo Mixer Tools -->
<svg height="800px" width="800px" version="1.1" id="Layer_1" xmlns="http://www.w3.org/2000/svg" xmlns:xlink="http://www.w3.org/1999/xlink" 
	 viewBox="0 0 297 297" xml:space="preserve">
<g>
	<g>
		<circle style="fill:#404447;" cx="148.5" cy="148.5" r="148.5"/>
	</g>
	<path style="fill:#2C3033;" d="M297,148.5c0-3.864-0.148-7.694-0.438-11.484l-52.544-52.544H52.111v143.647l65.643,65.686
		c9.921,2.089,20.204,3.195,30.747,3.195C230.514,297,297,230.514,297,148.5z"/>
	<g>
		<path style="fill:#FFFFFF;" d="M58.038,231L58.038,231c-4.163,0-7.538-3.375-7.538-7.538V90.038c0-4.163,3.375-7.538,7.538-7.538
			l0,0c4.163,0,7.538,3.375,7.538,7.538v133.423C65.577,227.625,62.202,231,58.038,231z"/>
	</g>
	<g>
		<path style="fill:#FFFFFF;" d="M103.269,231L103.269,231c-4.163,0-7.538-3.375-7.538-7.538V90.038
			c0-4.163,3.375-7.538,7.538-7.538l0,0c4.163,0,7.538,3.375,7.538,7.538v133.423C110.808,227.625,107.433,231,103.269,231z"/>
	</g>
	<g>
		<path style="fill:#D0D5D9;" d="M193.731,231L193.731,231c-4.163,0-7.538-3.375-7.538-7.538V90.038
			c0-4.163,3.375-7.538,7.538-7.538l0,0c4.163,0,7.538,3.375,7.538,7.538v133.423C201.269,227.625,197.894,231,193.731,231z"/>
	</g>
	<g>
		<path style="fill:#D0D5D9;" d="M238.962,231L238.962,231c-4.163,0-7.538-3.375-7.538-7.538V90.038
			c0-4.163,3.375-7.538,7.538-7.538l0,0c4.163,0,7.538,3.375,7.538,7.538v133.423C246.5,227.625,243.125,231,238.962,231z"/>
	</g>
	<g>
		<path style="fill:#E67E22;" d="M72.288,115.5h-28.5c-4.556,0-8.25-3.694-8.25-8.25l0,0c0-4.556,3.694-8.25,8.25-8.25h28.5
			c4.556,0,8.25,3.694,8.25,8.25l0,0C80.538,111.806,76.845,115.5,72.288,115.5z"/>
	</g>
	<g>
		<path style="fill:#E67E22;" d="M117.519,181.5h-28.5c-4.556,0-8.25-3.694-8.25-8.25l0,0c0-4.556,3.694-8.25,8.25-8.25h28.5
			c4.556,0,8.25,3.694,8.25,8.25l0,0C125.769,177.806,122.076,181.5,117.519,181.5z"/>
	</g>
	<g>
		<path style="fill:#C96317;" d="M207.981,148.5h-28.5c-4.556,0-8.25-3.694-8.25-8.25l0,0c0-4.556,3.694-8.25,8.25-8.25h28.5
			c4.556,0,8.25,3.694,8.25,8.25l0,0C216.231,144.806,212.537,148.5,207.981,148.5z"/>
	</g>
	<g>
		<path style="fill:#C96317;" d="M253.212,115.5h-28.5c-4.556,0-8.25-3.694-8.25-8.25l0,0c0-4.556,3.694-8.25,8.25-8.25h28.5
			c4.556,0,8.25,3.694,8.25,8.25l0,0C261.462,111.806,257.768,115.5,253.212,115.5z"/>
	</g>
	<g>
		<path style="fill:#FFFFFF;" d="M148.5,231L148.5,231c-4.163,0-7.538-3.375-7.538-7.538V90.038c0-4.163,3.375-7.538,7.538-7.538
			l0,0c4.163,0,7.538,3.375,7.538,7.538v133.423C156.038,227.625,152.663,231,148.5,231z"/>
	</g>
	<g>
		<path style="fill:#D0D5D9;" d="M148.5,82.5c-0.112,0-0.222,0.012-0.333,0.017v148.466c0.111,0.005,0.221,0.017,0.333,0.017
			c4.163,0,7.538-3.375,7.538-7.538V90.038C156.038,85.875,152.663,82.5,148.5,82.5z"/>
	</g>
	<g>
		<path style="fill:#E67E22;" d="M162.75,132h-28.5c-4.556,0-8.25-3.694-8.25-8.25l0,0c0-4.556,3.694-8.25,8.25-8.25h28.5
			c4.556,0,8.25,3.694,8.25,8.25l0,0C171,128.306,167.306,132,162.75,132z"/>
	</g>
	<g>
		<path style="fill:#C96317;" d="M162.75,115.5h-14.583V132h14.583c4.556,0,8.25-3.694,8.25-8.25S167.306,115.5,162.75,115.5z"/>
	</g>
</g>
</svg>