<?xml version="1.0" encoding="iso-8859-1"?>
<!-- Uploaded to: SVG Repo, www.svgrepo.com, Generator: SVG Repo Mixer Tools -->
<svg version="1.1" id="Layer_1" xmlns="http://www.w3.org/2000/svg" xmlns:xlink="http://www.w3.org/1999/xlink" 
	 viewBox="0 0 297 297" xml:space="preserve">
<g>
	<circle style="fill:#404447;" cx="148.5" cy="148.5" r="148.5"/>
	<path style="fill:#2C3033;" d="M297,148.5c0-6.363-0.402-12.632-1.178-18.785l-65.137-64.733L64.657,231.01l64.775,64.775
		c6.243,0.8,12.607,1.215,19.068,1.215C230.514,297,297,230.514,297,148.5z"/>
	<path style="fill:#FFFFFF;" d="M74.112,235.25h148.11c7.011,0,12.695-5.684,12.695-12.695V74.445
		c0-7.011-5.684-12.695-12.695-12.695H74.112c-7.011,0-12.695,5.684-12.695,12.695v148.11
		C61.417,229.566,67.101,235.25,74.112,235.25z"/>
	<rect x="168.797" y="61.75" style="fill:#616466;" width="19.572" height="35.176"/>
	<path style="fill:#DBDCDD;" d="M222.222,61.75H148.5v173.5h73.722c7.011,0,12.695-5.684,12.695-12.695V74.445
		C234.917,67.434,229.233,61.75,222.222,61.75z"/>
	<rect x="212.172" y="211.447" style="fill:#404447;" width="10.579" height="10.579"/>
	<rect x="71.921" y="211.447" style="fill:#404447;" width="10.579" height="10.579"/>
	<rect x="98.532" y="61.75" style="fill:#BDC3C7;" width="99.974" height="45.491"/>
	<rect x="148.5" y="61.75" style="fill:#A1A5A8;" width="50.006" height="45.491"/>
	<circle style="fill:#616466;" cx="148.519" cy="158.286" r="27.771"/>
	<path style="fill:#525354;" d="M148.519,130.515c-0.006,0-0.013,0-0.019,0v55.54c0.006,0,0.013,0,0.019,0
		c15.337,0,27.771-12.433,27.771-27.771C176.29,142.949,163.857,130.515,148.519,130.515z"/>
	<circle style="fill:#404447;" cx="148.519" cy="158.286" r="9.345"/>
	<path style="fill:#2C3033;" d="M148.519,148.941c-0.006,0-0.013,0.001-0.019,0.001v18.688c0.006,0,0.013,0.001,0.019,0.001
		c5.161,0,9.345-4.184,9.345-9.345C157.865,153.125,153.68,148.941,148.519,148.941z"/>
</g>
</svg>