<?xml version="1.0" encoding="iso-8859-1"?>
<!-- Uploaded to: SVG Repo, www.svgrepo.com, Generator: SVG Repo Mixer Tools -->
<svg version="1.1" id="Layer_1" xmlns="http://www.w3.org/2000/svg" xmlns:xlink="http://www.w3.org/1999/xlink" 
	 viewBox="0 0 297 297" xml:space="preserve">
<g>
	<g>
		<circle style="fill:#17AB93;" cx="148.5" cy="148.5" r="148.5"/>
	</g>
	<path style="fill:#0A7C66;" d="M297,148.5c0-7.729-0.592-15.32-1.73-22.731l-69.542-69.306L70.944,240.255l55.041,55.048
		C133.327,296.42,140.846,297,148.5,297C230.514,297,297,230.514,297,148.5z"/>
	<g>
		<path style="fill:#32373B;" d="M216.833,53.25h-91.782c-3.608,0-7.068,1.433-9.619,3.984l-45.199,45.199
			c-2.551,2.551-3.984,6.011-3.984,9.619v117.782c0,7.686,6.231,13.917,13.917,13.917h136.667c7.686,0,13.917-6.231,13.917-13.917
			V67.167C230.75,59.481,224.519,53.25,216.833,53.25z"/>
	</g>
	<g>
		<path style="fill:#2C3033;" d="M216.833,53.25H147.5v190.5h69.333c7.686,0,13.917-6.231,13.917-13.917V67.167
			C230.75,59.481,224.519,53.25,216.833,53.25z"/>
	</g>
	<g>
		<rect x="192.75" y="53.25" style="fill:#D39346;" width="13" height="33"/>
	</g>
	<g>
		<rect x="99" y="148.5" style="fill:#BDC3C7;" width="99" height="66"/>
	</g>
	<g>
		<rect x="140.75" y="53.25" style="fill:#F9B65F;" width="13" height="33"/>
	</g>
	<g>
		<rect x="147.5" y="148.5" style="fill:#A1A5A8;" width="50.5" height="66"/>
	</g>
	<g>
		<rect x="147.5" y="53.25" style="fill:#D39346;" width="6.25" height="33"/>
	</g>
	<g>
		<rect x="166.75" y="53.25" style="fill:#D39346;" width="13" height="33"/>
	</g>
</g>
</svg>