<?xml version="1.0" encoding="iso-8859-1"?>
<!-- Uploaded to: SVG Repo, www.svgrepo.com, Generator: SVG Repo Mixer Tools -->
<svg height="800px" width="800px" version="1.1" id="Layer_1" xmlns="http://www.w3.org/2000/svg" xmlns:xlink="http://www.w3.org/1999/xlink" 
	 viewBox="0 0 297 297" xml:space="preserve">
<g>
	<g>
		<circle style="fill:#3DBCE5;" cx="148.5" cy="148.5" r="148.5"/>
	</g>
	<path style="fill:#2393AD;" d="M297,148.5c0-12.331-1.513-24.307-4.346-35.762l-71.963-71.94c-2.07,2.798-4.189,5.668-7.069,7.658
		c-2.926,27.609,1.878,55.67,1.878,83.044c-1,10-6,18-16,21c-42,12-82,25-126,29c-10.385,0.865-18.6,6.906-28.135,12.02
		L148.85,296.996C230.703,296.806,297,230.397,297,148.5z"/>
	<g>
		<g>
			<path style="fill:#ECF0F1;" d="M222.75,137h-16.5V46.25c0-4.556,3.694-8.25,8.25-8.25l0,0c4.556,0,8.25,3.694,8.25,8.25V137z"/>
		</g>
		<g>
			<path style="fill:#E3E5E4;" d="M55.917,198h185.167c8.1,0,14.667-6.566,14.667-14.667v-36.667c0-8.1-6.566-14.667-14.667-14.667
				H55.917c-8.1,0-14.667,6.566-14.667,14.667v36.667C41.25,191.434,47.816,198,55.917,198z"/>
		</g>
		<g>
			<path style="fill:#E3E5E4;" d="M55.917,198h185.167c8.1,0,14.667-6.566,14.667-14.667v-36.667c0-8.1-6.566-14.667-14.667-14.667
				H55.917c-8.1,0-14.667,6.566-14.667,14.667v36.667C41.25,191.434,47.816,198,55.917,198z"/>
		</g>
		<g>
			<path style="fill:#C4C6C5;" d="M241.083,132h-93.25v66h93.25c8.1,0,14.667-6.566,14.667-14.667v-36.667
				C255.75,138.566,249.184,132,241.083,132z"/>
		</g>
		<g>
			<path style="fill:#61676B;" d="M134.333,181.5H63.667c-3.268,0-5.917-2.649-5.917-5.917v-4.667c0-3.268,2.649-5.917,5.917-5.917
				h70.667c3.268,0,5.917,2.649,5.917,5.917v4.667C140.25,178.851,137.601,181.5,134.333,181.5z"/>
		</g>
		<g>
			<circle style="fill:#86C867;" cx="232.941" cy="173.25" r="6.309"/>
		</g>
		<g>
			<circle style="fill:#86C867;" cx="214.015" cy="173.25" r="6.309"/>
		</g>
		<g>
			<circle style="fill:#86C867;" cx="195.088" cy="173.25" r="6.309"/>
		</g>
	</g>
</g>
</svg>