<?xml version="1.0" encoding="iso-8859-1"?>
<!-- Uploaded to: SVG Repo, www.svgrepo.com, Generator: SVG Repo Mixer Tools -->
<svg height="800px" width="800px" version="1.1" id="Layer_1" xmlns="http://www.w3.org/2000/svg" xmlns:xlink="http://www.w3.org/1999/xlink" 
	 viewBox="0 0 297 297" xml:space="preserve">
<g>
	<g>
		<circle style="fill:#345065;" cx="148.5" cy="148.5" r="148.5"/>
	</g>
	<path style="fill:#223F51;" d="M297,148.5c0-2.611-0.069-5.205-0.202-7.782l-69.924-69.924L70.718,226.922l69.861,69.867
		c2.623,0.138,5.263,0.211,7.921,0.211C230.514,297,297,230.514,297,148.5z"/>
	<g>
		<path style="fill:#BFF796;" d="M81,231h135c8.284,0,15-6.716,15-15V81c0-8.284-6.716-15-15-15H81c-8.284,0-15,6.716-15,15v135
			C66,224.284,72.716,231,81,231z"/>
	</g>
	<g>
		<path style="fill:#8FC961;" d="M216,66h-66.833v165H216c8.284,0,15-6.716,15-15V81C231,72.716,224.284,66,216,66z"/>
	</g>
	<g>
		<path style="fill:#19934A;" d="M179.833,198h21.333c3.222,0,5.833-2.612,5.833-5.833v-87.333c0-3.222-2.612-5.834-5.833-5.834
			h-21.333c-3.222,0-5.833,2.612-5.833,5.834v87.333C174,195.388,176.612,198,179.833,198z"/>
	</g>
	<g>
		<path style="fill:#27AE60;" d="M99.016,103.758l63.979,36.938c6.007,3.468,6.007,12.139,0,15.607l-63.979,36.938
			c-6.007,3.468-13.516-0.867-13.516-7.803v-73.877C85.5,104.625,93.009,100.29,99.016,103.758z"/>
	</g>
	<g>
		<path style="fill:#19934A;" d="M162.995,140.697l-13.828-7.984v31.573l13.828-7.983
			C169.002,152.835,169.002,144.165,162.995,140.697z"/>
	</g>
</g>
</svg>