<?xml version="1.0" encoding="utf-8"?>
<!-- Uploaded to: SVG Repo, www.svgrepo.com, Generator: SVG Repo Mixer Tools -->
<svg width="800px" height="800px" viewBox="0 0 1024 1024" class="icon"  version="1.1" xmlns="http://www.w3.org/2000/svg"><path d="M884.973779 195.009199c7.324876-7.199962 11.395844-16.966804 11.456253-27.35924 0-10.581855-4.317724-20.973267-11.8955-28.552066l-32.179692-32.241125c-14.96306-15.027565-41.069064-15.338826-55.846801-0.564161l-1.12525 1.128322c-10.956597-6.074712-23.790999-7.702689-36.000832-5.698946-2.003744-0.62457-3.881549-1.499992-6.07164-1.689411a335.185243 335.185243 0 0 0-26.984497-1.063817c-164.097077 0-218.564705 127.156318-241.792568 181.500056-3.567216 8.202345-7.574704 17.530965-9.517014 20.473611-3.317388 4.881885-13.459996 15.274321-44.700785 29.737726-3.506807 1.627978-6.449454 4.006463-9.014287 6.574367-16.091382 16.08831 3.693154 36.626426 20.784872 30.426801 23.541171-9.578447 49.647176-20.909786 68.366871-49.585743 3.06756-4.756971 6.824196-13.02075 11.520758-23.538099 21.848689-49.275505 66.988721-150.258243 184.69253-154.768458L402.078743 444.436879c-91.344905 91.597805-170.35404 183.067624-222.943862 258.070296-0.374742 0.62457-0.938903 1.503064-1.37815 2.318077-36.75134 52.779241-56.221543 91.405315-59.603436 118.014046-0.938903 7.138528 0.689075 13.649415 3.317388 19.28488l-21.723775 21.723775c-7.44979 7.574704-7.513271 19.723103 0.064505 27.297807 7.44979 7.513271 19.65655 7.513271 27.234326-0.064505l21.663366-21.663366c4.756971 2.318076 9.953189 4.135473 15.773977 4.135473 1.003408 0 2.882237-0.127986 3.881549-0.2529 26.923065-3.317388 65.863471-22.977011 118.957045-59.978178 0.813989-0.499656 1.564497-1.000336 2.313981-1.499992 74.441583-52.278561 165.222327-130.663126 255.941638-221.068104a16.615611 16.615611 0 0 0 1.564497-1.37815l328.315997-328.376406c10.081175-10.081175 15.591726-23.47769 15.591725-37.815157a55.407554 55.407554 0 0 0-7.075047-27.109411l0.999312-1.065865z" fill="#27323A" /><path d="M510.014686 404.682484l204.979795-204.976723 76.756587 76.755563L586.70984 481.439071z" fill="#79CCBF" /><path d="M463.67978 451.011247l23.5381-23.537076 76.757611 76.756587-23.5381 23.5381zM260.961748 772.87779c-51.086758 35.687523-78.195146 47.207257-91.344905 50.900411-0.625594-0.689075-1.253236-1.375078-1.942311-2.003744 3.696226-13.085254 15.216984-40.130161 50.964916-91.344905 0.62457-0.750508 1.063817-1.564497 1.503064-2.378486 0.249828-0.374742 0.561089-0.750508 0.750508-1.063817l43.512055 43.512055c-0.564161 0.374742-1.188731 0.878494-1.814325 1.253236-0.564161 0.375766-1.129346 0.750508-1.629002 1.12525z" fill="#FFFFFF" /><path d="M512.896924 555.130145c-77.758971 77.630985-155.394052 146.126866-222.132946 196.213289l-50.650583-50.650584C289.948966 634.265218 358.380341 556.630137 436.200746 478.495401l4.756971-4.756972 76.759659 76.756588-3.25698 3.256979c-0.564161 0.439247-1.063817 0.938903-1.563472 1.378149z" fill="#F4CE73" /><path d="M834.198282 211.476347l6.135121 6.260035c2.128658 2.064153 2.44299 4.317724 2.44299 5.507479 0 1.442654-0.439247 2.631385-1.439583 3.571312l-26.85856 26.85856-76.695154-76.759659 26.795079-26.85856c1.692482-1.689411 4.320796-3.881549 9.267186 1.063817l5.949798 6.010206c9.453533 9.3921 24.727854 9.3921 34.119955 0l10.267522-10.203017 20.284192 20.348697-10.142608 10.203017c-9.390052 9.328619-9.453533 24.541507-0.125938 33.998113z" fill="#FFFFFF" /></svg>