<?xml version="1.0" encoding="iso-8859-1"?>
<!-- Uploaded to: SVG Repo, www.svgrepo.com, Generator: SVG Repo Mixer Tools -->
<svg version="1.1" id="Layer_1" xmlns="http://www.w3.org/2000/svg" xmlns:xlink="http://www.w3.org/1999/xlink" 
	 viewBox="0 0 297 297" xml:space="preserve">
<g>
	<g>
		<circle style="fill:#404447;" cx="148.5" cy="148.5" r="148.5"/>
	</g>
	<path style="fill:#2C3033;" d="M297,148.5c0-11.659-1.347-23.004-3.888-33.889l-63.57-63.501L52.422,227.262l66.453,66.779
		c9.574,1.938,19.48,2.959,29.626,2.959C230.514,297,297,230.514,297,148.5z"/>
	<g>
		<path style="fill:#D0D5D9;" d="M170.167,231H60.834c-6.259,0-11.333-5.074-11.333-11.333V93.833
			c0-6.259,5.074-11.333,11.333-11.333h109.333c6.259,0,11.333,5.074,11.333,11.333v125.833C181.5,225.926,176.426,231,170.167,231z
			"/>
	</g>
	<g>
		<rect x="66" y="99" style="fill:#17AB93;" width="99" height="99"/>
	</g>
	<g>
		<path style="fill:#BCBFC1;" d="M170.167,82.5h-58V231h58c6.259,0,11.333-5.074,11.333-11.333V93.833
			C181.5,87.574,176.426,82.5,170.167,82.5z"/>
	</g>
	<g>
		<path style="fill:#ECF0F1;" d="M221.361,199.75H108.639c-6.428,0-11.639-5.211-11.639-11.639V59.389
			c0-6.428,5.211-11.639,11.639-11.639h112.723c6.428,0,11.639,5.211,11.639,11.639v128.723
			C233,194.539,227.789,199.75,221.361,199.75z"/>
	</g>
	<g>
		<path style="fill:#D0D5D9;" d="M221.361,47.75h-56.528v152h56.528c6.428,0,11.639-5.211,11.639-11.639V59.389
			C233,52.961,227.789,47.75,221.361,47.75z"/>
	</g>
	<g>
		<rect x="114" y="64.639" style="fill:#82D9C8;" width="102" height="101.333"/>
	</g>
	<g>
		<rect x="164.834" y="64.639" style="fill:#66B5A5;" width="51.166" height="101.333"/>
	</g>
</g>
</svg>