<?xml version="1.0" encoding="iso-8859-1"?>
<!-- Uploaded to: SVG Repo, www.svgrepo.com, Generator: SVG Repo Mixer Tools -->
<svg height="800px" width="800px" version="1.1" id="Layer_1" xmlns="http://www.w3.org/2000/svg" xmlns:xlink="http://www.w3.org/1999/xlink" 
	 viewBox="0 0 297 297" xml:space="preserve">
<g>
	<g>
		<circle style="fill:#662621;" cx="148.5" cy="148.5" r="148.5"/>
	</g>
	<path style="fill:#511815;" d="M297,148.5c0-2.611-0.069-5.205-0.202-7.782l-69.924-69.924L70.716,226.92l69.864,69.869
		c2.623,0.138,5.263,0.211,7.921,0.211C230.514,297,297,230.514,297,148.5z"/>
	<g>
		<path style="fill:#F9B65F;" d="M81,231h135c8.284,0,15-6.716,15-15V81c0-8.284-6.716-15-15-15H81c-8.284,0-15,6.716-15,15v135
			C66,224.284,72.716,231,81,231z"/>
	</g>
	<g>
		<path style="fill:#DD9E52;" d="M216,66h-68.5v165H216c8.284,0,15-6.716,15-15V81C231,72.716,224.284,66,216,66z"/>
	</g>
	<g>
		<path style="fill:#C0392B;" d="M122.661,95.944l71.789,41.447c6.74,3.892,6.74,13.62,0,17.512l-71.789,41.447
			c-6.74,3.891-15.166-0.973-15.166-8.756v-82.895C107.495,96.917,115.92,92.053,122.661,95.944z"/>
	</g>
	<g>
		<path style="fill:#9E2019;" d="M194.45,137.392l-46.95-27.106v71.724l46.949-27.106C201.19,151.012,201.19,141.283,194.45,137.392
			z"/>
	</g>
</g>
</svg>