<?xml version="1.0" encoding="iso-8859-1"?>
<!-- Uploaded to: SVG Repo, www.svgrepo.com, Generator: SVG Repo Mixer Tools -->
<svg height="800px" width="800px" version="1.1" id="Layer_1" xmlns="http://www.w3.org/2000/svg" xmlns:xlink="http://www.w3.org/1999/xlink" 
	 viewBox="0 0 297 297" xml:space="preserve">
<g>
	<g>
		<circle style="fill:#3DBCE5;" cx="148.5" cy="148.5" r="148.5"/>
	</g>
	<path style="fill:#2393AD;" d="M297,148.5c0-2.611-0.069-5.205-0.202-7.782l-69.924-69.924L70.719,226.923l69.86,69.866
		c2.623,0.138,5.263,0.211,7.921,0.211C230.514,297,297,230.514,297,148.5z"/>
	<g>
		<path style="fill:#314B5A;" d="M216,66H81c-8.284,0-15,6.716-15,15v135c0,8.284,6.716,15,15,15h135c8.284,0,15-6.716,15-15V81
			C231,72.716,224.284,66,216,66z"/>
	</g>
	<g>
		<path style="fill:#223F51;" d="M216,66h-67.833v165H216c8.284,0,15-6.716,15-15V81C231,72.716,224.284,66,216,66z"/>
	</g>
	<g>
		<path style="fill:#82D9C8;" d="M117.167,99H95.834C92.612,99,90,101.612,90,104.833v87.333c0,3.222,2.612,5.834,5.834,5.834
			h21.333c3.222,0,5.833-2.612,5.833-5.833v-87.333C123,101.612,120.388,99,117.167,99z"/>
	</g>
	<g>
		<path style="fill:#82D9C8;" d="M197.984,193.242l-63.979-36.938c-6.007-3.468-6.007-12.139,0-15.607l63.979-36.938
			c6.007-3.468,13.516,0.867,13.516,7.803v73.877C211.5,192.375,203.991,196.71,197.984,193.242z"/>
	</g>
	<g>
		<path style="fill:#57AA9A;" d="M197.984,103.758l-49.817,28.762v31.959l49.817,28.762c6.007,3.468,13.516-0.867,13.516-7.803
			v-73.877C211.5,104.625,203.991,100.29,197.984,103.758z"/>
	</g>
</g>
</svg>