<?xml version="1.0" encoding="iso-8859-1"?>
<!-- Uploaded to: SVG Repo, www.svgrepo.com, Generator: SVG Repo Mixer Tools -->
<svg version="1.1" id="Layer_1" xmlns="http://www.w3.org/2000/svg" xmlns:xlink="http://www.w3.org/1999/xlink" 
	 viewBox="0 0 297 297" xml:space="preserve">
<g>
	<g>
		<circle style="fill:#2ECC71;" cx="148.5" cy="148.5" r="148.5"/>
	</g>
	<path style="fill:#1DA855;" d="M297,148.5c0-4.427-0.205-8.805-0.585-13.134l-69.509-69.509c-6.148-0.46-11.618-2.795-16.048-6.387
		c-1.629-0.295-3.204-0.72-4.715-1.27c-3.482,1.438-7.207,2.251-10.976,2.251c-2.948,0-5.759-0.431-8.399-1.217
		c-2.865,1.024-5.871,1.621-8.913,1.701c-1.92,3.026-4.399,5.712-7.249,7.931c0.002,0.045,0.009,0.089,0.011,0.134
		c0.381,8.516-3.602,16.365-9.743,21.89v131.853c0.117,0.91,0.201,1.828,0.243,2.757c0.072,1.61-0.018,3.196-0.243,4.747V239h-2.902
		c-5.131,9.65-15.802,16.451-26.806,16.451c-4.396,0-8.49-0.944-12.156-2.624c-7.849-0.692-14.597-4.42-19.423-9.944
		c-0.802,2.124-1.784,4.221-3.095,6.069l47.992,47.993c1.334,0.035,2.672,0.055,4.015,0.055C230.514,297,297,230.514,297,148.5z"/>
	<g>
		<rect x="60.75" y="66" style="fill:#D0D5D9;" width="60" height="60"/>
	</g>
	<g>
		<g>
			<rect x="72.5" y="76.5" style="fill:#5D7486;" width="12" height="32"/>
		</g>
		<g>
			<rect x="97" y="76.5" style="fill:#5D7486;" width="12" height="32"/>
		</g>
	</g>
	<g>
		<path style="fill:#FFFFFF;" d="M132,260.5h-8.25c-20.953,0-38-17.047-38-38V206c0-2.762,2.238-5,5-5s5,2.238,5,5v16.5
			c0,15.439,12.561,28,28,28H132c15.439,0,28-12.561,28-28v-132c0-20.953,17.047-38,38-38s38,17.047,38,38V239c0,2.762-2.238,5-5,5
			s-5-2.238-5-5V90.5c0-15.439-12.561-28-28-28s-28,12.561-28,28v132C170,243.453,152.953,260.5,132,260.5z"/>
	</g>
	<g>
		<path style="fill:#C4C6C5;" d="M198,52.5c-20.953,0-38,17.047-38,38v132c0,9.64-4.897,18.156-12.333,23.195v11.411
			C160.824,251.126,170,237.869,170,222.5v-132c0-15.439,12.561-28,28-28s28,12.561,28,28V239c0,2.762,2.238,5,5,5s5-2.238,5-5V90.5
			C236,69.547,218.953,52.5,198,52.5z"/>
	</g>
	<g>
		<path style="fill:#5D7486;" d="M104.166,214.5H77.334c-15.372,0-27.834-12.461-27.834-27.833V115.5H132v71.167
			C132,202.039,119.539,214.5,104.166,214.5z"/>
	</g>
</g>
</svg>