<?xml version="1.0" encoding="utf-8"?>
<!-- Uploaded to: SVG Repo, www.svgrepo.com, Generator: SVG Repo Mixer Tools -->
<svg width="800px" height="800px" viewBox="0 0 32 32" fill="none" xmlns="http://www.w3.org/2000/svg">
<g clip-path="url(#clip0_901_3186)">
<path d="M31 25V30C31 30.55 30.55 31 30 31H2C1.45 31 1 30.55 1 30V25H19C19 26.1 19.9 27 21 27C22.1 27 23 26.1 23 25H31Z" fill="#668077"/>
<path d="M13 17L20 13L13 9V17ZM31 2V25H23C23 23.9 22.1 23 21 23C19.9 23 19 23.9 19 25H1V2C1 1.45 1.45 1 2 1H30C30.55 1 31 1.45 31 2Z" fill="#FFE6EA"/>
<path d="M21 23C22.1 23 23 23.9 23 25C23 26.1 22.1 27 21 27C19.9 27 19 26.1 19 25C19 23.9 19.9 23 21 23Z" fill="#FFC44D"/>
<path d="M20 13L13 17V9L20 13Z" fill="#FFC44D"/>
<path d="M19 25H1V30C1 30.553 1.447 31 2 31H30C30.553 31 31 30.553 31 30V2C31 1.447 30.553 1 30 1H2C1.447 1 1 1.447 1 2V22M19 25C19 23.896 19.896 23 21 23C22.104 23 23 23.896 23 25M19 25C19 26.104 19.896 27 21 27C22.104 27 23 26.104 23 25M23 25H28M13 9V17L20 13L13 9Z" stroke="#000000" stroke-width="2" stroke-linecap="round" stroke-linejoin="round"/>
</g>
<defs>
<clipPath id="clip0_901_3186">
<rect width="32" height="32" fill="white"/>
</clipPath>
</defs>
</svg>