<?xml version="1.0" encoding="iso-8859-1"?>
<!-- Uploaded to: SVG Repo, www.svgrepo.com, Generator: SVG Repo Mixer Tools -->
<svg height="800px" width="800px" version="1.1" id="Layer_1" xmlns="http://www.w3.org/2000/svg" xmlns:xlink="http://www.w3.org/1999/xlink" 
	 viewBox="0 0 297.001 297.001" xml:space="preserve">
<g>
	<g>
		<circle style="fill:#2C3E50;" cx="148.501" cy="148.5" r="148.5"/>
	</g>
	<path style="fill:#21313F;" d="M296.607,159.295l-94.988-94.971L63.874,236.14l58.581,58.581c8.457,1.496,17.16,2.28,26.046,2.28
		C226.885,297,291.076,236.269,296.607,159.295z"/>
	<g>
		<path style="fill:#9ADAD9;" d="M73.292,240.375c-7.861,0-13.863-7.059-12.564-14.811c7.053-42.103,43.666-74.189,87.773-74.189
			s80.72,32.085,87.773,74.189c1.299,7.753-4.704,14.811-12.564,14.811H73.292z"/>
	</g>
	<g>
		<path style="fill:#71AAA7;" d="M236.273,225.563c-7.053-42.103-43.666-74.188-87.773-74.188c-0.223,0-0.443,0.013-0.666,0.015
			v88.985h75.875C231.571,240.375,237.573,233.316,236.273,225.563z"/>
	</g>
	<g>
		<circle style="fill:#FFFFFF;" cx="148.501" cy="119.375" r="76.5"/>
	</g>
	<g>
		<path style="fill:#D0D5D9;" d="M148.501,42.875c-0.223,0-0.443,0.015-0.666,0.017v152.966c0.223,0.002,0.443,0.017,0.666,0.017
			c42.25,0,76.5-34.25,76.5-76.5S190.751,42.875,148.501,42.875z"/>
	</g>
	<g>
		<circle style="fill:#BDC3C7;" cx="148.501" cy="119.375" r="38.25"/>
	</g>
	<g>
		<path style="fill:#9EA4A8;" d="M148.501,81.125c-0.223,0-0.444,0.013-0.666,0.017v76.466c0.223,0.004,0.443,0.017,0.666,0.017
			c21.125,0,38.25-17.125,38.25-38.25S169.626,81.125,148.501,81.125z"/>
	</g>
	<g>
		<circle style="fill:#32373B;" cx="148.501" cy="119.375" r="19.125"/>
	</g>
	<g>
		<path style="fill:#2C3033;" d="M148.501,100.25c-0.225,0-0.443,0.026-0.666,0.034v38.183c0.223,0.008,0.441,0.034,0.666,0.034
			c10.563,0,19.125-8.563,19.125-19.125S159.064,100.25,148.501,100.25z"/>
	</g>
</g>
</svg>